<svg xmlns="http://www.w3.org/2000/svg" xmlns:xlink="http://www.w3.org/1999/xlink" id="Capa_1" width="512" height="512" x="0" y="0" enable-background="new 0 0 512 512" version="1.1" viewBox="0 0 512 512" xml:space="preserve"><g><path fill="#000" d="M431.379,0.222h-394.7C16.456,0.222,0,16.671,0,36.895v394.268c0,20.221,16.456,36.677,36.679,36.677h394.7 c20.228,0,36.683-16.456,36.683-36.677V36.895C468.062,16.665,451.606,0.222,431.379,0.222z M406.519,41.966 c8.689,0,15.723,7.04,15.723,15.72c0,8.683-7.033,15.717-15.723,15.717c-8.688,0-15.723-7.04-15.723-15.717 C390.796,49.006,397.83,41.966,406.519,41.966z M350.189,41.966c8.688,0,15.723,7.04,15.723,15.72 c0,8.683-7.034,15.717-15.723,15.717c-8.684,0-15.711-7.04-15.711-15.717C334.479,49.006,341.506,41.966,350.189,41.966z M41.913,112.426h184.055v313.495H41.913V112.426z M426.148,425.921H242.104V112.426h184.044V425.921z"/></g></svg>